<svg width="19" height="19" viewBox="0 0 19 19" fill="none" xmlns="http://www.w3.org/2000/svg">
<path d="M15.6192 6.14705L14.9979 6.78803L14.362 7.40823L13.7442 8.04966L13.1181 8.67972L12.4904 9.3113L11.8623 9.93939L11.2126 10.5458L10.5701 11.1686L9.97548 11.8302L9.34739 12.4583L8.6996 13.0667L8.07196 13.6982L7.4522 14.3377L6.8182 14.9599L6.20239 15.6033L5.54474 16.2018L4.91119 16.8275L4.31481 17.4751L3.53964 17.6945L2.70315 17.2382L2.02506 16.5723L1.35914 15.8942L0.923798 15.0604L1.13562 14.2929L1.74823 13.6645L2.36646 13.0266L3.03396 12.4379L3.64932 11.791L4.26165 11.1471L4.9055 10.5348L5.54102 9.91112L6.1726 9.28348L6.79477 8.64948L7.43029 8.02578L8.04019 7.37647L8.65251 6.73262L9.30425 6.12818L9.94765 5.51236L10.5812 4.8867L11.1911 4.23738L11.8266 3.61369L12.4271 2.95801L13.0651 2.33978L13.705 1.72351L14.3305 1.10196L15.0916 0.853248L15.9435 1.30982L16.6297 1.97163L17.2997 2.64166L17.7426 3.50733L17.5116 4.28615L16.8833 4.89876L16.267 5.53867L15.6192 6.14705Z" fill="#F98181"/>
<path d="M12.4485 15.5638L11.8076 14.9425L11.1873 14.3065L10.5459 13.6888L9.91586 13.0626L9.28428 12.435L8.65619 11.8069L8.04978 11.1571L7.42699 10.5146L6.7654 9.92006L6.13731 9.29197L5.52893 8.64418L4.89735 8.01654L4.25789 7.39678L3.63572 6.76278L2.99231 6.14697L2.39378 5.48932L1.76812 4.85577L1.12049 4.25939L0.901063 3.48422L1.35735 2.64773L2.02328 1.96964L2.70137 1.30372L3.53516 0.868378L4.30272 1.0802L4.93108 1.69281L5.56903 2.31104L6.1577 2.97854L6.80459 3.5939L7.44845 4.20623L8.06077 4.85008L8.68446 5.4856L9.3121 6.11718L9.9461 6.73935L10.5698 7.37487L11.2191 7.98477L11.863 8.59709L12.4674 9.24883L13.0832 9.89223L13.7089 10.5258L14.3582 11.1357L14.9819 11.7712L15.6376 12.3717L16.2558 13.0096L16.8721 13.6496L17.4936 14.275L17.7423 15.0361L17.2858 15.8881L16.624 16.5743L15.9539 17.2443L15.0883 17.6872L14.3094 17.4562L13.6968 16.8278L13.0569 16.2116L12.4485 15.5638Z" fill="#F98181"/>
</svg>
