<svg width="22" height="22" viewBox="0 0 22 22" fill="none" xmlns="http://www.w3.org/2000/svg">
<circle cx="11" cy="11" r="9.5625" stroke="#00CFFF" stroke-width="1.125"/>
<path d="M10.8088 9.59385C10.8088 8.82043 11.4592 8.17708 12.2326 8.18763C12.5035 8.19075 12.7677 8.27204 12.9934 8.42172C13.2192 8.5714 13.3969 8.78309 13.5053 9.03136H14.7463L13.6107 10.1669C13.5375 11.3075 13.0325 12.3775 12.1986 13.1591C11.3647 13.9408 10.2644 14.3756 9.12138 14.375C7.9964 14.375 7.71515 13.9531 7.71515 13.9531C7.71515 13.9531 8.84013 13.5313 9.40262 12.6875C9.40262 12.6875 7.15267 11.5626 7.71515 8.46887C7.71515 8.46887 9.12138 9.87509 10.8088 10.1563V9.59385Z" fill="#00CFFF" stroke="#00CFFF" stroke-width="0.878906" stroke-linecap="round" stroke-linejoin="round"/>
</svg>
