<svg width="22" height="22" viewBox="0 0 22 22" fill="none" xmlns="http://www.w3.org/2000/svg">
<circle cx="11" cy="11" r="9.5625" stroke="#00CFFF" stroke-width="1.125"/>
<path d="M10.4199 9.7981V14.1181" stroke="#00CFFF" stroke-width="1.08" stroke-linecap="round" stroke-linejoin="round"/>
<path d="M8.25989 9.7981V14.1181" stroke="#00CFFF" stroke-width="1.08" stroke-linecap="round" stroke-linejoin="round"/>
<path d="M10.4199 11.6881C10.4199 11.1868 10.619 10.7061 10.9735 10.3517C11.3279 9.99722 11.8087 9.7981 12.3099 9.7981C12.8112 9.7981 13.2919 9.99722 13.6464 10.3517C14.0008 10.7061 14.1999 11.1868 14.1999 11.6881V14.1181" stroke="#00CFFF" stroke-width="1.08" stroke-linecap="round" stroke-linejoin="round"/>
<path d="M8.25971 8.44788C8.70706 8.44788 9.06971 8.08523 9.06971 7.63788C9.06971 7.19053 8.70706 6.82788 8.25971 6.82788C7.81236 6.82788 7.44971 7.19053 7.44971 7.63788C7.44971 8.08523 7.81236 8.44788 8.25971 8.44788Z" fill="#00CFFF"/>
</svg>
