<svg width="167" height="165" viewBox="0 0 167 165" fill="none" xmlns="http://www.w3.org/2000/svg">
<g clip-path="url(#clip0_1_29236)">
<path d="M138.422 61.3175L140.008 65.4527L140.641 69.8425L141.64 74.1706L141.572 78.6196L141.535 83.0441L140.824 87.4116L140.24 91.8011L138.924 96.0467L137.527 100.254L135.481 104.208L133.124 107.964L130.407 111.458L127.796 115.022L124.825 118.325L121.18 120.889L117.694 123.597L114.036 126.125L109.889 127.716L105.766 129.298L101.691 131.131L97.3277 131.955L92.8916 132.189L88.4834 132.428L84.0312 132.655L79.6807 131.763L75.3132 131.052L71.1252 129.595L66.8879 128.303L62.799 126.557L59.1751 123.967L55.5365 121.448L52.2343 118.517L49.0968 115.408L46.0259 112.223L43.301 108.728L41.0573 104.891L39.2134 100.859L37.6629 96.7116L36.001 92.5896L35.0616 88.2406L34.4202 83.827L34.317 79.3848L34.6608 74.9593L35.0563 70.529L36.0681 66.2165L37.3443 61.9715L38.6603 57.7259L41.0412 53.9618L43.2417 50.1408L45.6595 46.444L48.299 42.8832L51.4479 39.745L54.7308 36.7603L58.4412 34.3072L62.3407 32.2022L66.2652 30.1685L70.3091 28.3603L74.5481 27.0317L78.9428 26.4505L83.3123 25.7979L87.7125 25.3084L92.1543 25.4325L96.5515 26.0001L100.875 26.9679L105.094 28.3202L109.35 29.5922L113.362 31.4984L117.235 33.6941L120.765 36.3978L124.122 39.2959L127.205 42.4775L129.938 45.956L132.871 49.2837L135.067 53.1378L137.038 57.1113L138.422 61.3175Z" fill="#00CFFF"/>
<path d="M104.035 17.0482C104.1 12.1326 104.763 7.24723 105.935 2.47737C106.126 1.68845 105.514 0.860552 104.742 0.717378C103.91 0.555224 103.173 1.12155 102.982 1.91047C101.739 6.9328 101.103 12.089 101.035 17.26C101.024 18.0659 101.876 18.7025 102.637 18.6623C103.493 18.5887 104.016 17.8703 104.035 17.0482Z" fill="white"/>
<path d="M58.9477 27.4179C56.3978 20.1588 53.8478 12.8996 51.2979 5.6405C50.6583 3.81977 47.8219 4.80276 48.4656 6.6354C51.0156 13.8945 53.5655 21.1537 56.1155 28.4128C56.755 30.2335 59.5915 29.2505 58.9477 27.4179Z" fill="white"/>
<path d="M32.6996 53.6968C24.0935 52.6024 15.6752 50.2923 7.72891 46.8137C5.96134 46.0443 4.65248 48.75 6.43195 49.5153C14.6111 53.0858 23.2825 55.5076 32.1286 56.638C32.9281 56.7448 33.7264 56.2773 33.8885 55.4449C34.0282 54.7007 33.4992 53.8037 32.6996 53.6968Z" fill="white"/>
<path d="M25.6516 89.5007C17.4881 92.3684 9.32452 95.236 1.14907 98.1079C-0.671664 98.7474 0.311332 101.584 2.14397 100.94C10.3075 98.0725 18.4711 95.2048 26.6465 92.333C28.4714 91.7053 27.4843 88.857 25.6516 89.5007Z" fill="white"/>
<path d="M40.801 121.705C38.5767 125.534 36.3405 129.368 34.1163 133.197C33.7087 133.902 34.1271 134.865 34.8185 135.196C35.6065 135.575 36.4102 135.199 36.8178 134.494C39.042 130.665 41.2782 126.831 43.5025 123.002C43.91 122.297 43.4917 121.335 42.8002 121.003C42.0241 120.62 41.2085 121 40.801 121.705Z" fill="white"/>
<path d="M90.2575 103.115L87.7966 100.41L84.1865 99.4188L80.5622 98.5396L76.8978 97.8884L73.2236 97.1336L69.5077 96.7545L65.764 96.6391L62.031 96.4398L58.3031 96.0648L54.5697 96.5875L50.829 96.4043L47.0972 96.7793L43.3982 97.2097L39.6639 97.4253L35.9626 97.9634L32.2968 98.7164L28.7338 99.9145L26.251 102.551L28.7148 105.188L32.2792 106.316L35.8964 107.251L39.5332 108.166L43.2398 108.709L47.0041 108.617L50.7065 109.147L54.4547 109.047L58.1855 109.354L61.9236 109.378L65.6615 109.135L69.3923 108.947L73.1369 108.875L76.8208 108.249L80.561 107.898L84.1031 106.64L87.7098 105.681L90.2575 103.115Z" fill="white"/>
<path d="M33.1671 103.972L29.7281 103.202L26.2042 102.608L26.2752 99.0805L26.3635 95.6404L30.0908 95.4808L33.8473 95.8992L37.615 95.7788L41.3757 95.7145L45.1361 95.8775L48.8904 95.9089L52.6623 95.8005L56.4218 95.6563L60.1818 96.0467L63.9499 95.699L67.701 96.0257L71.4687 95.9053L75.2339 96.1201L78.9992 95.8402L82.7556 96.2586L86.5115 96.1424L90.3639 96.0726L90.0382 99.6361L90.2946 103.182L86.6673 103.855L83.0918 104.523L79.4893 104.999L75.8855 105.396L72.3412 106.267L68.7069 106.501L65.1472 107.404L61.1546 106.694L57.1666 106.263L53.1849 105.737L49.1856 105.35L45.1487 105.351L41.1806 104.673L37.179 104.394L33.1671 103.972Z" fill="white"/>
<path d="M80.5252 100.411L76.8269 100.881L73.1375 101.415L69.4459 102.057L65.7299 102.173L61.976 101.914L58.2343 102.413L54.5096 102.237L50.802 101.882L47.0931 101.447L43.3771 101.068L39.6322 100.872L35.9683 100.261L32.3862 99.2735L29.0273 97.7797L26.8421 95.5929L28.9913 93.3005L32.4591 92.1358L36.0761 91.3198L39.7654 90.7858L43.4602 90.3435L47.1637 89.6977L50.8803 89.622L54.6211 89.8053L58.3721 89.6373L62.0971 89.5855L65.8266 89.8128L69.5542 89.9205L73.2425 90.5633L76.9691 90.8585L80.5863 91.7937L84.3077 92.2645L87.7213 93.6856L90.2301 96.1465L87.5933 98.3829L84.1464 99.6071L80.5252 100.411Z" fill="#000D20"/>
<path d="M29.1061 93.4741L32.5144 92.3303L36.1195 91.5184L39.7928 90.9768L43.4876 90.5345L43.4995 90.5303L43.5114 90.5261L47.1792 89.8928L50.8797 89.8094L54.6086 89.9968L54.6247 90.0046L54.6366 90.0004L58.3638 89.8408L62.0888 89.7889L65.8064 90.0204L69.5179 90.1204L73.1824 90.7716L73.1985 90.7793L73.2146 90.787L76.909 91.0668L80.4982 91.9984L80.5262 92.002L80.5542 92.0055L84.2357 92.477L87.585 93.8672L89.9114 96.1515L87.4673 98.2133L84.0561 99.4249L80.4587 100.221L76.7765 100.699L73.0829 101.221L69.4151 101.854L65.7271 101.973L62.0012 101.718L61.9613 101.718L61.9214 101.719L58.2195 102.217L54.5228 102.045L50.8152 101.69L47.1063 101.255L43.3946 100.888L43.3827 100.892L43.3708 100.896L39.6496 100.693L35.9977 100.077L32.4316 99.0972L29.1329 97.6223L27.1139 95.6043L29.1061 93.4741ZM28.8772 93.1267L26.5633 95.5972L28.9106 97.941L32.3017 99.4503L35.9118 100.441L39.6036 101.056L43.3408 101.268L47.0526 101.635L50.7615 102.07L54.4852 102.433L58.2259 102.616L61.9635 102.105L65.7055 102.368L69.4453 102.244L73.1488 101.599L76.8424 101.077L80.5365 100.594L84.1696 99.7861L87.6641 98.5452L90.4977 96.1461L87.8066 93.5086L84.3329 92.0685L80.5954 91.59L76.974 90.6429L73.2355 90.3519L69.5794 89.7245L65.8399 89.621L62.1104 89.3937L58.3735 89.4497L54.6343 89.6135L50.8894 89.4183L47.149 89.5023L43.4455 90.1482L39.7346 90.5828L36.0494 91.1286L32.4045 91.9411L28.8772 93.1267Z" fill="white"/>
<path d="M149.491 146.638L134.655 157.986C123.853 166.246 108.291 163.464 101.018 151.968L58.1882 84.2747L98.624 53.3598L152.556 112.662C161.697 122.699 160.273 138.399 149.491 146.638Z" fill="#000D20" stroke="white" stroke-width="0.600925" stroke-miterlimit="10"/>
<path d="M69.6619 90.1102C66.7852 92.3105 62.6756 91.7622 60.4752 88.8854L54.5097 81.0748C52.3094 78.1981 52.8577 74.0885 55.7344 71.8882C58.6112 69.6878 62.7208 70.2362 64.9211 73.1129L70.9027 80.9312C73.087 83.8002 72.5386 87.9098 69.6619 90.1102Z" fill="#000D20" stroke="white" stroke-width="0.600925" stroke-miterlimit="10"/>
<path d="M82.3321 85.1116C79.4554 87.312 75.3458 86.7636 73.1454 83.8869L61.875 69.1566C59.6746 66.2799 60.223 62.1703 63.0997 59.9699C65.9764 57.7696 70.086 58.3179 72.2863 61.1947L83.5568 75.925C85.7452 78.8059 85.1969 82.9155 82.3321 85.1116Z" fill="#000D20" stroke="white" stroke-width="0.600925" stroke-miterlimit="10"/>
<path d="M94.1158 78.9666C91.2391 81.167 87.1294 80.6187 84.9291 77.7419L72.2851 61.1947C70.0848 58.318 70.6331 54.2084 73.5098 52.008C76.3866 49.8077 80.4962 50.356 82.6965 53.2327L95.3405 69.78C97.5408 72.6567 96.9925 76.7663 94.1158 78.9666Z" fill="#000D20" stroke="white" stroke-width="0.600925" stroke-miterlimit="10"/>
<path d="M103.135 69.208C100.258 71.4083 96.1484 70.86 93.9481 67.9833L85.7131 57.2133C83.5128 54.3366 84.0611 50.227 86.9378 48.0266C89.8145 45.8263 93.9242 46.3746 96.1245 49.2513L104.359 60.0213C106.56 62.8981 106.011 67.0077 103.135 69.208Z" fill="#000D20" stroke="white" stroke-width="0.600925" stroke-miterlimit="10"/>
<path d="M83.2935 78.4902C81.9314 75.1452 83.5413 71.3177 86.9024 69.9633L107.563 61.5695C110.908 60.2073 114.735 61.8173 116.09 65.1783C117.452 68.5233 115.842 72.3507 112.481 73.7052L91.8204 82.099C88.4755 83.4612 84.6599 81.847 83.2935 78.4902Z" fill="#000D20" stroke="white" stroke-width="0.600925" stroke-miterlimit="10"/>
<path d="M98.1362 93.9173C100.44 100.474 96.9887 107.662 90.4317 109.966C86.7069 111.274 82.7848 110.727 79.6707 108.826" fill="#000D20"/>
<path d="M98.1362 93.9173C100.44 100.474 96.9887 107.662 90.4317 109.966C86.7069 111.274 82.7848 110.727 79.6707 108.826" stroke="white" stroke-width="0.732681" stroke-miterlimit="10"/>
<path d="M116.318 78.9615C118.621 85.5185 115.17 92.7065 108.613 95.0098C104.889 96.3182 100.966 95.7708 97.8523 93.8702" fill="#000D20"/>
<path d="M116.318 78.9615C118.621 85.5185 115.17 92.7065 108.613 95.0098C104.889 96.3182 100.966 95.7708 97.8523 93.8702" stroke="white" stroke-width="0.732681" stroke-miterlimit="10"/>
<path d="M152.842 74.6606L149.434 75.3097L146.869 78.0555L144.125 80.5968L141.985 83.6749L139.444 86.4522L137.562 89.6937L135.485 92.8026L133.446 95.9389L131.744 99.2772L130.054 102.611L128.505 106.003L126.578 109.233L125.395 112.791L123.802 116.171L122.538 119.69L121.266 123.225L120.692 126.956L121.804 130.616L125.257 129.296L128.172 126.975L130.616 124.152L132.89 121.187L135.398 118.394L137.297 115.16L139.24 111.978L141.381 108.9L142.933 105.48L144.921 102.309L146.755 99.0441L148.312 95.6363L149.54 92.0902L150.997 88.6641L152.489 85.2255L153.48 81.6153L153.799 77.8804L152.842 74.6606Z" fill="white"/>
<path d="M126.336 124.906L124.243 127.74L121.911 130.311L118.936 128.615L115.998 126.987L117.512 123.648L119.317 120.34L121.309 117.141L123.091 113.841L125.049 110.626L126.69 107.229L128.782 104.088L130.258 100.602L132.269 97.4218L133.91 94.0247L136.034 90.899L137.747 87.5565L139.34 84.1362L141.262 80.8941L143.153 77.6365L145.027 74.3713L146.903 71.1857L149.959 72.6924L152.915 74.4879L151.545 77.8169L150.724 81.3804L149.567 84.8216L148.241 88.2018L147.067 91.6353L145.958 95.0997L144.52 98.4258L142.405 101.843L139.902 104.994L137.839 108.446L135.357 111.617L133.226 115.026L131.018 118.369L128.415 121.462L126.336 124.906Z" fill="white"/>
<path d="M115.96 126.84L115.114 123.595L115.834 120.013L116.894 116.445L117.649 112.771L119.29 109.414L120.658 105.925L122.159 102.511L123.913 99.2074L125.651 95.8964L127.607 92.7096L129.751 89.6435L131.638 86.4139L133.719 83.3168L135.997 80.3642L138.105 77.2707L140.639 74.5493L143.578 72.3001L146.781 71.2953L147.883 74.5447L147.035 78.1445L146.08 81.7421L144.687 85.1991L143.299 88.6679L142.079 92.198L140.305 95.4816L138.567 98.7925L136.66 102.002L135.183 105.449L132.922 108.449L131.103 111.721L128.954 114.776L126.89 117.881L124.462 120.712L121.913 123.426L119.31 126.064L115.96 126.84Z" fill="#000D20"/>
<path d="M143.669 72.4823L146.653 71.5408L147.683 74.548L146.854 78.0877L145.907 81.6692L144.51 85.1143L143.133 88.579L143.138 88.5909L143.142 88.6028L141.93 92.1168L140.163 95.3843L138.421 98.6834L136.526 101.889L136.506 101.909L136.503 101.937L135.042 105.352L132.803 108.304L132.784 108.324L132.764 108.344L130.953 111.6L128.816 114.65L126.764 117.751L124.344 120.566L121.794 123.28L119.243 125.874L116.139 126.59L115.349 123.579L116.058 120.041L117.11 116.49L117.118 116.474L117.125 116.458L117.876 112.812L119.498 109.475L119.506 109.459L119.514 109.443L120.886 105.966L122.375 102.555L124.133 99.2639L125.859 95.9571L127.807 92.7864L129.94 89.7244L129.948 89.7083L129.955 89.6922L131.834 86.4787L133.907 83.3978L136.185 80.4451L136.197 80.4409L136.205 80.4249L138.306 77.3474L140.819 74.6463L143.669 72.4823ZM143.475 72.1224L140.504 74.3961L137.955 77.1496L135.835 80.2473L133.545 83.2041L131.464 86.3012L129.578 89.5307L127.437 92.6088L125.482 95.7956L123.744 99.1066L121.978 102.414L120.469 105.845L119.097 109.322L117.46 112.691L116.697 116.381L115.638 119.948L114.898 123.59L115.812 127.066L119.408 126.23L122.05 123.551L124.611 120.833L127.051 117.998L129.123 114.877L131.268 111.811L133.086 108.538L135.348 105.538L136.82 102.08L138.727 98.8699L140.469 95.5709L142.251 92.2712L143.479 88.7251L144.855 85.2604L146.26 81.7992L147.211 78.1897L148.066 74.5339L146.881 71.0465L143.475 72.1224Z" fill="white"/>
<path d="M129.144 33.8416C134.453 27.3378 139.774 20.8299 145.083 14.3262C146.307 12.8265 144.018 10.8767 142.793 12.3763C137.485 18.8801 132.164 25.388 126.855 31.8918C125.631 33.3914 127.92 35.3412 129.144 33.8416Z" fill="white"/>
<path d="M144.48 54.283C149.166 52.7038 153.658 50.5374 157.824 47.8576C159.451 46.8182 157.74 44.3445 156.113 45.3839C152.164 47.9206 147.94 49.9391 143.493 51.4346C141.656 52.0665 142.651 54.8987 144.48 54.283Z" fill="white"/>
<path d="M75.4306 139.152C74.2953 143.227 73.1559 147.29 72.0206 151.365C71.8019 152.151 72.4534 152.978 73.2137 153.125C74.0621 153.295 74.7549 152.718 74.9737 151.932C76.109 147.857 77.2484 143.794 78.3837 139.719C78.6024 138.933 77.9509 138.106 77.1906 137.959C76.3303 137.793 75.6494 138.366 75.4306 139.152Z" fill="white"/>
<path d="M161.692 85.5487C162.701 85.0338 163.679 85.1178 164.514 85.8943C165.109 86.4472 166.12 86.3193 166.633 85.7246C167.181 85.0776 167.047 84.1622 166.464 83.6051C164.965 82.1931 162.545 81.7732 160.697 82.7164C159.969 83.0792 159.486 83.797 159.778 84.63C160.017 85.3083 160.964 85.9114 161.692 85.5487Z" fill="white"/>
</g>
<defs>
<clipPath id="clip0_1_29236">
<rect width="167" height="165" fill="white"/>
</clipPath>
</defs>
</svg>
