<svg width="22" height="22" viewBox="0 0 22 22" fill="none" xmlns="http://www.w3.org/2000/svg">
<circle cx="11" cy="11" r="9.5625" stroke="#00CFFF" stroke-width="1.125"/>
<path d="M11.2811 12.8708C12.159 12.8708 12.8708 12.159 12.8708 11.2811C12.8708 10.4031 12.159 9.69141 11.2811 9.69141C10.4031 9.69141 9.69141 10.4031 9.69141 11.2811C9.69141 12.159 10.4031 12.8708 11.2811 12.8708Z" fill="#000D20" stroke="#00CFFF" stroke-width="0.703125" stroke-miterlimit="10"/>
<path d="M13.0299 7.625H9.53261C8.47907 7.625 7.625 8.47907 7.625 9.53261V13.0299C7.625 14.0834 8.47907 14.9375 9.53261 14.9375H13.0299C14.0834 14.9375 14.9375 14.0834 14.9375 13.0299V9.53261C14.9375 8.47907 14.0834 7.625 13.0299 7.625Z" stroke="#00CFFF" stroke-width="0.703125" stroke-linecap="round" stroke-linejoin="round"/>
<path d="M13.348 9.6916C13.6114 9.6916 13.8249 9.47808 13.8249 9.2147C13.8249 8.95131 13.6114 8.73779 13.348 8.73779C13.0846 8.73779 12.8711 8.95131 12.8711 9.2147C12.8711 9.47808 13.0846 9.6916 13.348 9.6916Z" fill="#00CFFF"/>
</svg>
