<svg width="122" height="24" viewBox="0 0 122 24" fill="none" xmlns="http://www.w3.org/2000/svg">
<path d="M39.3112 13.4374V23.696H35.3591V14.8753C35.3591 10.9488 34.3971 9.87045 32.3171 9.87045C30.0291 9.87045 27.9231 12.6079 27.9231 16.6173V23.696H23.9451V6.33112H27.8971C27.8971 6.33112 27.8451 10.5064 27.9491 10.2576C28.7031 8.51556 30.5491 6.08226 33.4091 6.08226C36.9452 6.05461 39.3112 8.51556 39.3112 13.4374Z" fill="#5720F5"/>
<path d="M45.9935 9.29051C46.9815 7.43789 48.6195 6.05533 51.1676 6.05533C55.4056 6.05533 58.2916 10.0094 58.2916 15.0143C58.2916 20.0191 55.4056 23.9732 51.1676 23.9732C48.6975 23.9732 46.9815 22.6183 45.9935 20.7104C45.9415 20.5998 45.8895 23.6967 45.8895 23.6967H41.9375V-0.000244141H45.8895C45.9155 -0.000244141 45.9415 9.42876 45.9935 9.29051ZM54.3136 15.0143C54.3136 12.2492 53.0136 9.87117 50.2316 9.87117C47.6315 9.87117 45.8895 12.2492 45.8895 15.0143C45.8895 17.7794 47.6315 20.1574 50.2316 20.1574C53.0136 20.1574 54.3136 17.7794 54.3136 15.0143Z" fill="#5720F5"/>
<path d="M75.6875 15.0153C75.6875 19.9649 72.6195 23.9743 67.5234 23.9743C62.4274 23.9743 59.3594 19.9649 59.3594 15.0153C59.3594 10.0658 62.4274 6.0564 67.5234 6.0564C72.6195 6.0564 75.6875 10.0934 75.6875 15.0153ZM71.7095 15.0153C71.7095 12.1949 70.2014 9.87224 67.4974 9.87224C64.7934 9.87224 63.2854 12.1673 63.2854 15.0153C63.2854 17.8634 64.7934 20.1584 67.4974 20.1584C70.2014 20.1584 71.7095 17.8634 71.7095 15.0153Z" fill="#5720F5"/>
<path d="M82.5747 13.4669C85.4867 13.301 88.0607 13.6051 88.0347 11.9737C88.0087 10.7847 87.5667 9.48512 84.7587 9.48512C81.9767 9.48512 81.2747 10.7018 81.0407 12.112H77.1406C77.6866 7.74311 81.2227 6.0564 84.8887 6.0564C88.6327 6.0564 92.0127 7.38365 92.0127 14.0752V23.6978H88.0607C88.0607 23.6978 88.0607 20.0202 88.0087 20.1861C87.0727 22.5917 85.2787 23.9743 82.3667 23.9743C79.2986 23.9743 76.6726 21.8728 76.6726 18.9418C76.6206 15.0983 79.2986 13.6604 82.5747 13.4669ZM83.2507 16.2596C81.5607 16.4532 80.5986 17.1445 80.5986 18.6929C80.5986 20.1308 81.8987 21.0709 83.7187 20.7944C85.8247 20.4902 87.9827 19.0524 88.0087 14.7388C87.0987 15.8449 85.5907 16.0108 83.2507 16.2596Z" fill="#5720F5"/>
<path d="M98.879 9.73172C99.867 7.32608 100.777 6.08179 104.755 6.08179V10.34C100.153 10.0082 98.827 11.7503 98.827 16.1744V23.7232H94.875V6.3583H98.827C98.801 6.33065 98.827 9.81467 98.879 9.73172Z" fill="#5720F5"/>
<path d="M121.733 -0.000244141V23.6967H117.781L117.677 20.7104C116.533 22.5077 114.973 23.9732 112.503 23.9732C108.265 23.9732 105.379 20.0191 105.379 15.0143C105.379 10.0094 108.265 6.05533 112.503 6.05533C115.051 6.05533 116.767 7.38259 117.677 9.29051C117.729 9.42876 117.781 -0.000244141 117.781 -0.000244141H121.733C121.733 -0.000244141 121.707 -0.000244141 121.733 -0.000244141ZM117.755 15.0143C117.755 12.2492 116.013 9.87117 113.413 9.87117C110.631 9.87117 109.331 12.2492 109.331 15.0143C109.331 17.7794 110.631 20.1574 113.413 20.1574C116.013 20.1574 117.755 17.7794 117.755 15.0143Z" fill="#5720F5"/>
<path d="M10.8941 0.275146C4.08203 0.275146 0 5.58415 0 12.1374C0 18.6907 4.08203 23.9997 10.8941 23.9997C17.7061 23.9997 21.7882 18.6907 21.7882 12.1374C21.7882 5.58415 17.7061 0.275146 10.8941 0.275146ZM17.4201 12.0268L10.8161 19.0502C9.04806 20.9305 6.16204 20.9305 4.36803 19.0502C2.60002 17.1699 2.60002 14.1007 4.36803 12.1928L10.9721 5.16938C12.7401 3.28911 15.6261 3.28911 17.4201 5.16938C19.1881 7.0773 19.1881 10.1466 17.4201 12.0268Z" fill="#5720F5"/>
</svg>
