<svg width="199" height="40" viewBox="0 0 199 40" fill="none" xmlns="http://www.w3.org/2000/svg">
<path d="M64.2639 21.967V38.7369H57.8034V24.3174C57.8034 17.8988 56.2308 16.1359 52.8306 16.1359C49.0903 16.1359 45.6475 20.6109 45.6475 27.1652V38.7369H39.1445V10.3501H45.605C45.605 10.3501 45.52 17.1756 45.69 16.7687C46.9226 13.921 49.9403 9.94325 54.6157 9.94325C60.3961 9.89805 64.2639 13.921 64.2639 21.967Z" fill="white"/>
<path d="M75.1871 15.1878C76.8022 12.1593 79.48 9.89921 83.6453 9.89921C90.5733 9.89921 95.2911 16.3631 95.2911 24.5446C95.2911 32.7262 90.5733 39.19 83.6453 39.19C79.6075 39.19 76.8022 36.9752 75.1871 33.8562C75.1021 33.6754 75.0171 38.738 75.0171 38.738H68.5566V0H75.0171C75.0596 0 75.1021 15.4139 75.1871 15.1878ZM88.7881 24.5446C88.7881 20.0244 86.663 16.1371 82.1152 16.1371C77.8648 16.1371 75.0171 20.0244 75.0171 24.5446C75.0171 29.0648 77.8648 32.9522 82.1152 32.9522C86.663 32.9522 88.7881 29.0648 88.7881 24.5446Z" fill="white"/>
<path d="M123.727 24.5448C123.727 32.636 118.712 39.1902 110.381 39.1902C102.051 39.1902 97.0352 32.636 97.0352 24.5448C97.0352 16.4537 102.051 9.89941 110.381 9.89941C118.712 9.89941 123.727 16.4989 123.727 24.5448ZM117.224 24.5448C117.224 19.9342 114.759 16.1373 110.339 16.1373C105.918 16.1373 103.453 19.889 103.453 24.5448C103.453 29.2006 105.918 32.9524 110.339 32.9524C114.759 32.9524 117.224 29.2006 117.224 24.5448Z" fill="white"/>
<path d="M134.991 22.0135C139.752 21.7423 143.959 22.2395 143.917 19.5726C143.874 17.6289 143.152 15.5044 138.562 15.5044C134.014 15.5044 132.866 17.4933 132.484 19.7986H126.108C127.001 12.6567 132.781 9.89941 138.774 9.89941C144.894 9.89941 150.42 12.0691 150.42 23.008V38.7382H143.959C143.959 38.7382 143.959 32.7264 143.874 32.9976C142.344 36.9302 139.412 39.1902 134.651 39.1902C129.636 39.1902 125.343 35.7549 125.343 30.9635C125.258 24.6804 129.636 22.3299 134.991 22.0135ZM136.096 26.5789C133.334 26.8953 131.761 28.0254 131.761 30.5567C131.761 32.9072 133.886 34.444 136.861 33.992C140.304 33.4948 143.832 31.1443 143.874 24.0928C142.387 25.9009 139.922 26.1721 136.096 26.5789Z" fill="white"/>
<path d="M161.639 15.9095C163.254 11.9769 164.742 9.94287 171.245 9.94287V16.904C163.722 16.3615 161.554 19.2093 161.554 26.4416V38.7817H155.094V10.3949H161.554C161.512 10.3497 161.554 16.0451 161.639 15.9095Z" fill="white"/>
<path d="M199 0V38.738H192.539L192.369 33.8562C190.499 36.7943 187.949 39.19 183.911 39.19C176.983 39.19 172.265 32.7262 172.265 24.5446C172.265 16.3631 176.983 9.89921 183.911 9.89921C188.077 9.89921 190.882 12.0689 192.369 15.1878C192.454 15.4139 192.539 0 192.539 0H199C199 0 198.957 0 199 0ZM192.497 24.5446C192.497 20.0244 189.649 16.1371 185.399 16.1371C180.851 16.1371 178.726 20.0244 178.726 24.5446C178.726 29.0648 180.851 32.9522 185.399 32.9522C189.649 32.9522 192.497 29.0648 192.497 24.5446Z" fill="white"/>
<path d="M17.8088 0.450195C6.67301 0.450195 0 9.12896 0 19.8418C0 30.5547 6.67301 39.2334 17.8088 39.2334C28.9447 39.2334 35.6177 30.5547 35.6177 19.8418C35.6177 9.12896 28.9447 0.450195 17.8088 0.450195ZM28.4771 19.661L17.6813 31.1423C14.7911 34.216 10.0733 34.216 7.14054 31.1423C4.25032 28.0686 4.25032 23.0512 7.14054 19.9322L17.9364 8.45092C20.8266 5.37719 25.5444 5.37719 28.4771 8.45092C31.3674 11.5699 31.3674 16.5873 28.4771 19.661Z" fill="white"/>
</svg>
