<svg width="22" height="22" viewBox="0 0 22 22" fill="none" xmlns="http://www.w3.org/2000/svg">
<circle cx="11" cy="11" r="9.5625" stroke="#00CFFF" stroke-width="1.125"/>
<path d="M7.0625 11.2812C7.0625 12.4395 7.18298 13.1157 7.27238 13.4655C7.29702 13.5604 7.34363 13.6482 7.40844 13.7218C7.47325 13.7954 7.55445 13.8527 7.64549 13.8892C8.9475 14.3866 11.1046 14.375 11.1046 14.375C11.1046 14.375 13.2616 14.3866 14.5636 13.8892C14.6547 13.8527 14.7359 13.7954 14.8007 13.7218C14.8655 13.6482 14.9121 13.5604 14.9367 13.4655C15.0261 13.1157 15.1466 12.4395 15.1466 11.2812C15.1466 10.123 15.0261 9.44678 14.9367 9.09699C14.9121 9.00208 14.8655 8.91429 14.8007 8.8407C14.7359 8.76711 14.6547 8.70979 14.5636 8.67335C13.2616 8.17586 11.1046 8.18752 11.1046 8.18752C11.1046 8.18752 8.9475 8.17586 7.64549 8.67335C7.55445 8.70979 7.47325 8.76711 7.40844 8.8407C7.34363 8.91429 7.29702 9.00208 7.27238 9.09699C7.18298 9.44678 7.0625 10.123 7.0625 11.2812Z" fill="#00CFFF" stroke="#00CFFF" stroke-width="0.703125" stroke-linecap="round" stroke-linejoin="round"/>
<path d="M12.3484 11.2813L10.4828 10.0376V12.525L12.3484 11.2813Z" fill="#000D20" stroke="#000D20" stroke-width="0.703125" stroke-linecap="round" stroke-linejoin="round"/>
</svg>
