<svg width="22" height="26" viewBox="0 0 22 26" fill="none" xmlns="http://www.w3.org/2000/svg">
<path d="M18.4786 13.8268C18.4915 12.8302 18.7562 11.8531 19.2481 10.9864C19.7401 10.1196 20.4433 9.39133 21.2923 8.86935C20.753 8.09905 20.0414 7.46512 19.2142 7.01792C18.387 6.57071 17.4669 6.32255 16.527 6.29314C14.522 6.08268 12.5783 7.49289 11.5566 7.49289C10.5151 7.49289 8.94204 6.31404 7.2481 6.34889C6.15242 6.38428 5.08459 6.7029 4.14866 7.27369C3.21273 7.84448 2.44061 8.64798 1.90754 9.60589C-0.401548 13.6038 1.32083 19.4794 3.53279 22.7111C4.63948 24.2935 5.93288 26.0611 7.62529 25.9985C9.28141 25.9298 9.89994 24.9424 11.899 24.9424C13.8795 24.9424 14.4598 25.9985 16.1866 25.9586C17.9637 25.9298 19.0833 24.3691 20.1512 22.7717C20.9464 21.6442 21.5582 20.398 21.9642 19.0793C20.9317 18.6427 20.0506 17.9117 19.4308 16.9777C18.811 16.0436 18.4799 14.9478 18.4786 13.8268Z" fill="white"/>
<path d="M15.217 4.16772C16.1859 3.00454 16.6633 1.50947 16.5477 0C15.0674 0.155479 13.7 0.862979 12.7179 1.98153C12.2378 2.52797 11.8701 3.16369 11.6357 3.85234C11.4014 4.54099 11.3051 5.26907 11.3524 5.99495C12.0928 6.00257 12.8253 5.84209 13.4947 5.52558C14.1641 5.20907 14.753 4.7448 15.217 4.16772Z" fill="white"/>
</svg>
