<svg width="24" height="26" viewBox="0 0 24 26" fill="none" xmlns="http://www.w3.org/2000/svg">
<path d="M10.8244 12.4199L0.174438 23.7199C0.174438 23.7199 0.174438 23.7199 0.174438 23.7299C0.504438 24.9599 1.62444 25.8599 2.95444 25.8599C3.48444 25.8599 3.98444 25.7199 4.41444 25.4599L4.44444 25.4399L16.4244 18.5299L10.8244 12.4199Z" fill="#EA4335"/>
<path d="M21.5945 10.5L21.5845 10.49L16.4145 7.48999L10.5845 12.68L16.4345 18.53L21.5845 15.56C22.4845 15.07 23.0945 14.12 23.0945 13.03C23.0945 11.93 22.4845 10.99 21.5945 10.5Z" fill="#FBBC04"/>
<path d="M0.174463 2.27979C0.114463 2.51979 0.0744629 2.75978 0.0744629 3.01978V22.9898C0.0744629 23.2498 0.104463 23.4898 0.174463 23.7298L11.1845 12.7198L0.174463 2.27979Z" fill="#4285F4"/>
<path d="M10.9044 12.9999L16.4144 7.48989L4.44444 0.549892C4.01444 0.289892 3.50444 0.139893 2.95444 0.139893C1.62444 0.139893 0.504438 1.04989 0.174438 2.26989L10.9044 12.9999Z" fill="#34A853"/>
</svg>
