<svg width="69" height="70" viewBox="0 0 69 70" fill="none" xmlns="http://www.w3.org/2000/svg">
<path d="M44.2628 38.9713C43.7769 38.7175 41.4108 37.5263 40.9686 37.3563C40.5264 37.1938 40.2053 37.1087 39.8831 37.61C39.5681 38.0987 38.64 39.2175 38.3565 39.5438C38.073 39.87 37.7944 39.895 37.3158 39.6738C36.83 39.42 35.278 38.8987 33.4352 37.1937C31.9959 35.8725 31.0376 34.245 30.7529 33.7437C30.4694 33.2487 30.7214 32.9688 30.9613 32.7213C31.1818 32.4938 31.4471 32.1488 31.6931 31.8488C31.9269 31.5488 32.002 31.3475 32.1728 31.0225C32.3303 30.6712 32.2492 30.3975 32.1292 30.15C32.0093 29.9025 31.0437 27.4488 30.6402 26.4713C30.255 25.5013 29.8515 25.625 29.5547 25.625C29.2772 25.5988 28.955 25.5988 28.6339 25.5988C28.3129 25.5988 27.7883 25.7225 27.3461 26.1975C26.9038 26.6988 25.6547 27.8963 25.6547 30.3188C25.6547 32.7475 27.3836 35.0975 27.6235 35.4487C27.8694 35.7737 31.0243 40.7737 35.8644 42.9225C37.019 43.4237 37.9155 43.7238 38.6158 43.9713C39.7704 44.3488 40.8244 44.2962 41.6567 44.1725C42.5775 44.0162 44.5087 42.9675 44.9134 41.7963C45.3241 40.6175 45.3241 39.6412 45.2041 39.42C45.0842 39.1925 44.7692 39.0687 44.2834 38.8475L44.2628 38.9713ZM35.4852 51.25H35.4597C32.5944 51.25 29.7619 50.4487 27.2879 48.9512L26.7076 48.5938L20.6499 50.2213L22.2782 44.14L21.8869 43.515C20.2901 40.8913 19.4383 37.8638 19.4383 34.7525C19.4383 25.6775 26.6385 18.275 35.4973 18.275C39.7886 18.275 43.8145 20 46.8433 23.125C49.8722 26.2238 51.5441 30.3775 51.5441 34.7787C51.532 43.8475 44.3379 51.25 35.4912 51.25H35.4852ZM49.1465 20.7487C45.461 17.0763 40.6148 15 35.4597 15C24.8273 15 16.1696 23.8937 16.1636 34.8238C16.1636 38.3138 17.0468 41.7187 18.7381 44.7325L16 55L26.2351 52.2463C29.0555 53.815 32.2298 54.655 35.4609 54.6613H35.467C46.1055 54.6613 54.7632 45.7675 54.7692 34.83C54.7692 29.5375 52.769 24.5562 49.1223 20.8125L49.1465 20.7487Z" fill="#05D1FF"/>
<path d="M67.5 35C67.5 53.522 52.7051 68.5 34.5 68.5C16.2949 68.5 1.5 53.522 1.5 35C1.5 16.478 16.2949 1.5 34.5 1.5C52.7051 1.5 67.5 16.478 67.5 35Z" stroke="#05D1FF" stroke-width="3"/>
</svg>
